<svg width="63" height="51" viewBox="0 0 63 51" fill="none" xmlns="http://www.w3.org/2000/svg">
<mask id="path-1-outside-1_7_329" maskUnits="userSpaceOnUse" x="0" y="-0.0874023" width="63" height="52" fill="black">
<rect fill="white" y="-0.0874023" width="63" height="52"/>
<path d="M31.5079 0.912598C23.0988 0.912598 15.6502 5.09271 11.1389 11.469C10.9814 11.6915 10.8694 11.9428 10.8093 12.2085C10.7492 12.4743 10.7421 12.7492 10.7884 13.0177C10.8348 13.2862 10.9336 13.5429 11.0794 13.7732C11.2252 14.0035 11.4149 14.203 11.6379 14.3601C11.8609 14.5172 12.1127 14.6289 12.379 14.6889C12.6452 14.7489 12.9207 14.7559 13.1897 14.7097C13.4587 14.6634 13.7159 14.5647 13.9467 14.4192C14.1774 14.2736 14.3772 14.0842 14.5346 13.8616C18.2994 8.54048 24.4759 5.06061 31.5079 5.06061C42.4571 5.06061 51.3711 13.4574 52.2044 24.1668L50.2752 22.2414C50.0813 22.0428 49.8494 21.885 49.5933 21.7774C49.3373 21.6698 49.0622 21.6145 48.7843 21.6148C48.3713 21.6155 47.9679 21.7389 47.6255 21.9694C47.2831 22.1999 47.0173 22.527 46.862 22.9089C46.7066 23.2908 46.6688 23.7103 46.7534 24.1137C46.838 24.5172 47.041 24.8864 47.3367 25.1741L52.8971 30.7237C53.2868 31.1125 53.8153 31.3309 54.3663 31.3309C54.9174 31.3309 55.4458 31.1125 55.8356 30.7237L61.377 25.193C61.5764 25.0019 61.7357 24.773 61.8453 24.5197C61.955 24.2664 62.013 23.9938 62.0158 23.7179C62.0186 23.442 61.9662 23.1683 61.8617 22.9128C61.7572 22.6573 61.6027 22.4253 61.4072 22.2301C61.2117 22.035 60.9791 21.8808 60.7232 21.7765C60.4672 21.6722 60.193 21.6199 59.9165 21.6227C59.6401 21.6255 59.3669 21.6834 59.1131 21.7928C58.8594 21.9023 58.63 22.0612 58.4385 22.2603L56.3686 24.3262C55.5975 11.2921 44.7571 0.912598 31.5079 0.912598ZM31.5079 11.974C30.3222 11.974 29.1898 12.137 28.1257 12.4033C27.732 12.5021 27.3758 12.7138 27.1012 13.0123C26.8266 13.3108 26.6457 13.6831 26.5807 14.0831L26.3643 15.4036C26.3162 15.6919 26.1427 15.9425 25.888 16.0896C25.6339 16.2349 25.3311 16.2595 25.0601 16.1571L23.7992 15.6818C23.4202 15.5384 23.0074 15.5089 22.6117 15.5967C22.2161 15.6845 21.8548 15.8858 21.5723 16.176C20.0002 17.7938 18.8241 19.7954 18.1901 22.0253C18.0797 22.4144 18.0857 22.8273 18.2073 23.213C18.329 23.5988 18.5609 23.9406 18.8747 24.1965L19.9164 25.0472C20.1444 25.2334 20.2736 25.5059 20.2736 25.8006C20.2736 26.0954 20.1444 26.3679 19.9164 26.5541L18.8747 27.4048C18.5609 27.6607 18.329 28.0025 18.2073 28.3883C18.0857 28.774 18.0797 29.1869 18.1901 29.576C18.8237 31.8048 19.9993 33.8071 21.575 35.4253C21.8573 35.7149 22.2181 35.916 22.6132 36.0038C23.0083 36.0916 23.4205 36.0623 23.7992 35.9195L25.0601 35.4442C25.332 35.3415 25.6361 35.3651 25.8908 35.5117C26.1438 35.6574 26.3165 35.9092 26.3643 36.2004L26.5807 37.5182C26.6457 37.9182 26.8266 38.2905 27.1012 38.589C27.3758 38.8875 27.732 39.0992 28.1257 39.198C29.1898 39.4643 30.3222 39.6273 31.5079 39.6273C32.6936 39.6273 33.8261 39.4643 34.8902 39.198C35.2839 39.0992 35.6401 38.8875 35.9147 38.589C36.1892 38.2905 36.3702 37.9182 36.4352 37.5182L36.6516 36.2004V36.1977C36.6997 35.9094 36.8732 35.6588 37.1278 35.5117C37.382 35.3664 37.6848 35.3418 37.9558 35.4442L39.2167 35.9195C39.5957 36.0629 40.0085 36.0924 40.4041 36.0046C40.7998 35.9168 41.1611 35.7155 41.4435 35.4253C43.0157 33.8075 44.1918 31.8059 44.8258 29.576C44.9362 29.1869 44.9302 28.774 44.8085 28.3883C44.6869 28.0025 44.455 27.6607 44.1412 27.4048L43.0995 26.5541C42.8715 26.3679 42.7423 26.0954 42.7423 25.8006C42.7423 25.5059 42.8715 25.2334 43.0995 25.0472L44.1412 24.1965C44.455 23.9406 44.6869 23.5988 44.8085 23.213C44.9302 22.8273 44.9362 22.4144 44.8258 22.0253C44.1907 19.7915 43.0086 17.7937 41.4408 16.1787C41.1587 15.8881 40.7975 15.6862 40.4019 15.5979C40.0062 15.5096 39.5933 15.5388 39.214 15.6818L37.9585 16.1571C37.6866 16.2598 37.3798 16.2362 37.1251 16.0896C36.8728 15.9442 36.7 15.6938 36.6516 15.4036V15.4009L36.4325 14.0669C36.3667 13.6682 36.1857 13.2974 35.9117 12.9999C35.6377 12.7025 35.2827 12.4914 34.8902 12.3925C33.8089 12.1211 32.674 11.974 31.5079 11.974ZM31.5079 16.122C31.8939 16.122 32.2519 16.2156 32.6254 16.2597C32.9197 17.6898 33.7775 18.9487 35.0498 19.6813C36.2663 20.3817 37.7082 20.4813 39.0489 20.089C39.5278 20.7194 39.9229 21.3978 40.2368 22.1333C39.224 23.0962 38.5862 24.3961 38.5862 25.8006C38.5862 27.2039 39.223 28.5025 40.2341 29.4653C39.9208 30.2021 39.5295 30.8823 39.0516 31.5123C37.7096 31.1182 36.2651 31.2187 35.0471 31.92C33.7789 32.6525 32.9239 33.9096 32.6281 35.3362C32.255 35.3827 31.8877 35.4793 31.5079 35.4793C31.1282 35.4793 30.7609 35.3827 30.3878 35.3362C30.0922 33.9086 29.2393 32.6516 27.9688 31.92C26.7508 31.2187 25.3063 31.1182 23.9642 31.5123C23.4868 30.8832 23.0923 30.205 22.7791 29.468C23.7919 28.5051 24.4296 27.2052 24.4296 25.8006C24.4296 24.3974 23.7929 23.0987 22.7818 22.136C23.0951 21.3992 23.4864 20.719 23.9642 20.089C25.3063 20.4831 26.7508 20.3826 27.9688 19.6813C29.237 18.9488 30.092 17.6917 30.3878 16.2651C30.7609 16.2185 31.1282 16.122 31.5079 16.122ZM8.61979 20.27C8.07903 20.2779 7.56265 20.4958 7.18032 20.8776L1.63889 26.4083C1.43945 26.5994 1.28023 26.8283 1.17055 27.0816C1.06086 27.3349 1.00292 27.6075 1.00011 27.8834C0.997297 28.1593 1.04968 28.433 1.15418 28.6885C1.25868 28.944 1.41321 29.176 1.6087 29.3712C1.8042 29.5663 2.03674 29.7205 2.2927 29.8248C2.54867 29.9291 2.82291 29.9814 3.09937 29.9786C3.37583 29.9758 3.64895 29.9179 3.90274 29.8085C4.15653 29.699 4.38588 29.5401 4.57736 29.341L6.64728 27.2751C7.41843 40.3092 18.2588 50.6887 31.5079 50.6887C39.9171 50.6887 47.3657 46.5086 51.877 40.1323C52.0345 39.9098 52.1465 39.6585 52.2066 39.3928C52.2667 39.127 52.2738 38.8521 52.2275 38.5836C52.1811 38.3151 52.0823 38.0584 51.9365 37.8281C51.7907 37.5978 51.6009 37.3983 51.3779 37.2412C51.155 37.0841 50.9032 36.9724 50.6369 36.9124C50.3706 36.8524 50.0952 36.8454 49.8262 36.8916C49.5572 36.9379 49.3 37.0366 49.0692 37.1821C48.8384 37.3277 48.6387 37.5171 48.4813 37.7397C44.7165 43.0608 38.54 46.5407 31.5079 46.5407C20.5588 46.5407 11.6447 38.1439 10.8115 27.4345L12.7407 29.3599C12.9322 29.559 13.1615 29.7179 13.4153 29.8274C13.6691 29.9368 13.9422 29.9947 14.2187 29.9975C14.4951 30.0003 14.7694 29.948 15.0253 29.8437C15.2813 29.7394 15.5138 29.5852 15.7093 29.3901C15.9048 29.1949 16.0594 28.9629 16.1639 28.7074C16.2684 28.4519 16.3207 28.1782 16.3179 27.9023C16.3151 27.6264 16.2572 27.3538 16.1475 27.1005C16.0378 26.8472 15.8786 26.6183 15.6792 26.4272L10.1188 20.8776C9.92232 20.6814 9.68844 20.5266 9.43096 20.4222C9.17349 20.3178 8.89766 20.2661 8.61979 20.27ZM31.5079 23.0353C30.7731 23.0353 30.0684 23.3267 29.5488 23.8453C29.0291 24.3639 28.7372 25.0672 28.7372 25.8006C28.7372 26.5341 29.0291 27.2374 29.5488 27.756C30.0684 28.2746 30.7731 28.566 31.5079 28.566C32.2428 28.566 32.9475 28.2746 33.4671 27.756C33.9867 27.2374 34.2787 26.5341 34.2787 25.8006C34.2787 25.0672 33.9867 24.3639 33.4671 23.8453C32.9475 23.3267 32.2428 23.0353 31.5079 23.0353Z"/>
</mask>
<path d="M31.5079 0.912598C23.0988 0.912598 15.6502 5.09271 11.1389 11.469C10.9814 11.6915 10.8694 11.9428 10.8093 12.2085C10.7492 12.4743 10.7421 12.7492 10.7884 13.0177C10.8348 13.2862 10.9336 13.5429 11.0794 13.7732C11.2252 14.0035 11.4149 14.203 11.6379 14.3601C11.8609 14.5172 12.1127 14.6289 12.379 14.6889C12.6452 14.7489 12.9207 14.7559 13.1897 14.7097C13.4587 14.6634 13.7159 14.5647 13.9467 14.4192C14.1774 14.2736 14.3772 14.0842 14.5346 13.8616C18.2994 8.54048 24.4759 5.06061 31.5079 5.06061C42.4571 5.06061 51.3711 13.4574 52.2044 24.1668L50.2752 22.2414C50.0813 22.0428 49.8494 21.885 49.5933 21.7774C49.3373 21.6698 49.0622 21.6145 48.7843 21.6148C48.3713 21.6155 47.9679 21.7389 47.6255 21.9694C47.2831 22.1999 47.0173 22.527 46.862 22.9089C46.7066 23.2908 46.6688 23.7103 46.7534 24.1137C46.838 24.5172 47.041 24.8864 47.3367 25.1741L52.8971 30.7237C53.2868 31.1125 53.8153 31.3309 54.3663 31.3309C54.9174 31.3309 55.4458 31.1125 55.8356 30.7237L61.377 25.193C61.5764 25.0019 61.7357 24.773 61.8453 24.5197C61.955 24.2664 62.013 23.9938 62.0158 23.7179C62.0186 23.442 61.9662 23.1683 61.8617 22.9128C61.7572 22.6573 61.6027 22.4253 61.4072 22.2301C61.2117 22.035 60.9791 21.8808 60.7232 21.7765C60.4672 21.6722 60.193 21.6199 59.9165 21.6227C59.6401 21.6255 59.3669 21.6834 59.1131 21.7928C58.8594 21.9023 58.63 22.0612 58.4385 22.2603L56.3686 24.3262C55.5975 11.2921 44.7571 0.912598 31.5079 0.912598ZM31.5079 11.974C30.3222 11.974 29.1898 12.137 28.1257 12.4033C27.732 12.5021 27.3758 12.7138 27.1012 13.0123C26.8266 13.3108 26.6457 13.6831 26.5807 14.0831L26.3643 15.4036C26.3162 15.6919 26.1427 15.9425 25.888 16.0896C25.6339 16.2349 25.3311 16.2595 25.0601 16.1571L23.7992 15.6818C23.4202 15.5384 23.0074 15.5089 22.6117 15.5967C22.2161 15.6845 21.8548 15.8858 21.5723 16.176C20.0002 17.7938 18.8241 19.7954 18.1901 22.0253C18.0797 22.4144 18.0857 22.8273 18.2073 23.213C18.329 23.5988 18.5609 23.9406 18.8747 24.1965L19.9164 25.0472C20.1444 25.2334 20.2736 25.5059 20.2736 25.8006C20.2736 26.0954 20.1444 26.3679 19.9164 26.5541L18.8747 27.4048C18.5609 27.6607 18.329 28.0025 18.2073 28.3883C18.0857 28.774 18.0797 29.1869 18.1901 29.576C18.8237 31.8048 19.9993 33.8071 21.575 35.4253C21.8573 35.7149 22.2181 35.916 22.6132 36.0038C23.0083 36.0916 23.4205 36.0623 23.7992 35.9195L25.0601 35.4442C25.332 35.3415 25.6361 35.3651 25.8908 35.5117C26.1438 35.6574 26.3165 35.9092 26.3643 36.2004L26.5807 37.5182C26.6457 37.9182 26.8266 38.2905 27.1012 38.589C27.3758 38.8875 27.732 39.0992 28.1257 39.198C29.1898 39.4643 30.3222 39.6273 31.5079 39.6273C32.6936 39.6273 33.8261 39.4643 34.8902 39.198C35.2839 39.0992 35.6401 38.8875 35.9147 38.589C36.1892 38.2905 36.3702 37.9182 36.4352 37.5182L36.6516 36.2004V36.1977C36.6997 35.9094 36.8732 35.6588 37.1278 35.5117C37.382 35.3664 37.6848 35.3418 37.9558 35.4442L39.2167 35.9195C39.5957 36.0629 40.0085 36.0924 40.4041 36.0046C40.7998 35.9168 41.1611 35.7155 41.4435 35.4253C43.0157 33.8075 44.1918 31.8059 44.8258 29.576C44.9362 29.1869 44.9302 28.774 44.8085 28.3883C44.6869 28.0025 44.455 27.6607 44.1412 27.4048L43.0995 26.5541C42.8715 26.3679 42.7423 26.0954 42.7423 25.8006C42.7423 25.5059 42.8715 25.2334 43.0995 25.0472L44.1412 24.1965C44.455 23.9406 44.6869 23.5988 44.8085 23.213C44.9302 22.8273 44.9362 22.4144 44.8258 22.0253C44.1907 19.7915 43.0086 17.7937 41.4408 16.1787C41.1587 15.8881 40.7975 15.6862 40.4019 15.5979C40.0062 15.5096 39.5933 15.5388 39.214 15.6818L37.9585 16.1571C37.6866 16.2598 37.3798 16.2362 37.1251 16.0896C36.8728 15.9442 36.7 15.6938 36.6516 15.4036V15.4009L36.4325 14.0669C36.3667 13.6682 36.1857 13.2974 35.9117 12.9999C35.6377 12.7025 35.2827 12.4914 34.8902 12.3925C33.8089 12.1211 32.674 11.974 31.5079 11.974ZM31.5079 16.122C31.8939 16.122 32.2519 16.2156 32.6254 16.2597C32.9197 17.6898 33.7775 18.9487 35.0498 19.6813C36.2663 20.3817 37.7082 20.4813 39.0489 20.089C39.5278 20.7194 39.9229 21.3978 40.2368 22.1333C39.224 23.0962 38.5862 24.3961 38.5862 25.8006C38.5862 27.2039 39.223 28.5025 40.2341 29.4653C39.9208 30.2021 39.5295 30.8823 39.0516 31.5123C37.7096 31.1182 36.2651 31.2187 35.0471 31.92C33.7789 32.6525 32.9239 33.9096 32.6281 35.3362C32.255 35.3827 31.8877 35.4793 31.5079 35.4793C31.1282 35.4793 30.7609 35.3827 30.3878 35.3362C30.0922 33.9086 29.2393 32.6516 27.9688 31.92C26.7508 31.2187 25.3063 31.1182 23.9642 31.5123C23.4868 30.8832 23.0923 30.205 22.7791 29.468C23.7919 28.5051 24.4296 27.2052 24.4296 25.8006C24.4296 24.3974 23.7929 23.0987 22.7818 22.136C23.0951 21.3992 23.4864 20.719 23.9642 20.089C25.3063 20.4831 26.7508 20.3826 27.9688 19.6813C29.237 18.9488 30.092 17.6917 30.3878 16.2651C30.7609 16.2185 31.1282 16.122 31.5079 16.122ZM8.61979 20.27C8.07903 20.2779 7.56265 20.4958 7.18032 20.8776L1.63889 26.4083C1.43945 26.5994 1.28023 26.8283 1.17055 27.0816C1.06086 27.3349 1.00292 27.6075 1.00011 27.8834C0.997297 28.1593 1.04968 28.433 1.15418 28.6885C1.25868 28.944 1.41321 29.176 1.6087 29.3712C1.8042 29.5663 2.03674 29.7205 2.2927 29.8248C2.54867 29.9291 2.82291 29.9814 3.09937 29.9786C3.37583 29.9758 3.64895 29.9179 3.90274 29.8085C4.15653 29.699 4.38588 29.5401 4.57736 29.341L6.64728 27.2751C7.41843 40.3092 18.2588 50.6887 31.5079 50.6887C39.9171 50.6887 47.3657 46.5086 51.877 40.1323C52.0345 39.9098 52.1465 39.6585 52.2066 39.3928C52.2667 39.127 52.2738 38.8521 52.2275 38.5836C52.1811 38.3151 52.0823 38.0584 51.9365 37.8281C51.7907 37.5978 51.6009 37.3983 51.3779 37.2412C51.155 37.0841 50.9032 36.9724 50.6369 36.9124C50.3706 36.8524 50.0952 36.8454 49.8262 36.8916C49.5572 36.9379 49.3 37.0366 49.0692 37.1821C48.8384 37.3277 48.6387 37.5171 48.4813 37.7397C44.7165 43.0608 38.54 46.5407 31.5079 46.5407C20.5588 46.5407 11.6447 38.1439 10.8115 27.4345L12.7407 29.3599C12.9322 29.559 13.1615 29.7179 13.4153 29.8274C13.6691 29.9368 13.9422 29.9947 14.2187 29.9975C14.4951 30.0003 14.7694 29.948 15.0253 29.8437C15.2813 29.7394 15.5138 29.5852 15.7093 29.3901C15.9048 29.1949 16.0594 28.9629 16.1639 28.7074C16.2684 28.4519 16.3207 28.1782 16.3179 27.9023C16.3151 27.6264 16.2572 27.3538 16.1475 27.1005C16.0378 26.8472 15.8786 26.6183 15.6792 26.4272L10.1188 20.8776C9.92232 20.6814 9.68844 20.5266 9.43096 20.4222C9.17349 20.3178 8.89766 20.2661 8.61979 20.27ZM31.5079 23.0353C30.7731 23.0353 30.0684 23.3267 29.5488 23.8453C29.0291 24.3639 28.7372 25.0672 28.7372 25.8006C28.7372 26.5341 29.0291 27.2374 29.5488 27.756C30.0684 28.2746 30.7731 28.566 31.5079 28.566C32.2428 28.566 32.9475 28.2746 33.4671 27.756C33.9867 27.2374 34.2787 26.5341 34.2787 25.8006C34.2787 25.0672 33.9867 24.3639 33.4671 23.8453C32.9475 23.3267 32.2428 23.0353 31.5079 23.0353Z" fill="#2563EB"/>
<path d="M31.5079 0.912598C23.0988 0.912598 15.6502 5.09271 11.1389 11.469C10.9814 11.6915 10.8694 11.9428 10.8093 12.2085C10.7492 12.4743 10.7421 12.7492 10.7884 13.0177C10.8348 13.2862 10.9336 13.5429 11.0794 13.7732C11.2252 14.0035 11.4149 14.203 11.6379 14.3601C11.8609 14.5172 12.1127 14.6289 12.379 14.6889C12.6452 14.7489 12.9207 14.7559 13.1897 14.7097C13.4587 14.6634 13.7159 14.5647 13.9467 14.4192C14.1774 14.2736 14.3772 14.0842 14.5346 13.8616C18.2994 8.54048 24.4759 5.06061 31.5079 5.06061C42.4571 5.06061 51.3711 13.4574 52.2044 24.1668L50.2752 22.2414C50.0813 22.0428 49.8494 21.885 49.5933 21.7774C49.3373 21.6698 49.0622 21.6145 48.7843 21.6148C48.3713 21.6155 47.9679 21.7389 47.6255 21.9694C47.2831 22.1999 47.0173 22.527 46.862 22.9089C46.7066 23.2908 46.6688 23.7103 46.7534 24.1137C46.838 24.5172 47.041 24.8864 47.3367 25.1741L52.8971 30.7237C53.2868 31.1125 53.8153 31.3309 54.3663 31.3309C54.9174 31.3309 55.4458 31.1125 55.8356 30.7237L61.377 25.193C61.5764 25.0019 61.7357 24.773 61.8453 24.5197C61.955 24.2664 62.013 23.9938 62.0158 23.7179C62.0186 23.442 61.9662 23.1683 61.8617 22.9128C61.7572 22.6573 61.6027 22.4253 61.4072 22.2301C61.2117 22.035 60.9791 21.8808 60.7232 21.7765C60.4672 21.6722 60.193 21.6199 59.9165 21.6227C59.6401 21.6255 59.3669 21.6834 59.1131 21.7928C58.8594 21.9023 58.63 22.0612 58.4385 22.2603L56.3686 24.3262C55.5975 11.2921 44.7571 0.912598 31.5079 0.912598ZM31.5079 11.974C30.3222 11.974 29.1898 12.137 28.1257 12.4033C27.732 12.5021 27.3758 12.7138 27.1012 13.0123C26.8266 13.3108 26.6457 13.6831 26.5807 14.0831L26.3643 15.4036C26.3162 15.6919 26.1427 15.9425 25.888 16.0896C25.6339 16.2349 25.3311 16.2595 25.0601 16.1571L23.7992 15.6818C23.4202 15.5384 23.0074 15.5089 22.6117 15.5967C22.2161 15.6845 21.8548 15.8858 21.5723 16.176C20.0002 17.7938 18.8241 19.7954 18.1901 22.0253C18.0797 22.4144 18.0857 22.8273 18.2073 23.213C18.329 23.5988 18.5609 23.9406 18.8747 24.1965L19.9164 25.0472C20.1444 25.2334 20.2736 25.5059 20.2736 25.8006C20.2736 26.0954 20.1444 26.3679 19.9164 26.5541L18.8747 27.4048C18.5609 27.6607 18.329 28.0025 18.2073 28.3883C18.0857 28.774 18.0797 29.1869 18.1901 29.576C18.8237 31.8048 19.9993 33.8071 21.575 35.4253C21.8573 35.7149 22.2181 35.916 22.6132 36.0038C23.0083 36.0916 23.4205 36.0623 23.7992 35.9195L25.0601 35.4442C25.332 35.3415 25.6361 35.3651 25.8908 35.5117C26.1438 35.6574 26.3165 35.9092 26.3643 36.2004L26.5807 37.5182C26.6457 37.9182 26.8266 38.2905 27.1012 38.589C27.3758 38.8875 27.732 39.0992 28.1257 39.198C29.1898 39.4643 30.3222 39.6273 31.5079 39.6273C32.6936 39.6273 33.8261 39.4643 34.8902 39.198C35.2839 39.0992 35.6401 38.8875 35.9147 38.589C36.1892 38.2905 36.3702 37.9182 36.4352 37.5182L36.6516 36.2004V36.1977C36.6997 35.9094 36.8732 35.6588 37.1278 35.5117C37.382 35.3664 37.6848 35.3418 37.9558 35.4442L39.2167 35.9195C39.5957 36.0629 40.0085 36.0924 40.4041 36.0046C40.7998 35.9168 41.1611 35.7155 41.4435 35.4253C43.0157 33.8075 44.1918 31.8059 44.8258 29.576C44.9362 29.1869 44.9302 28.774 44.8085 28.3883C44.6869 28.0025 44.455 27.6607 44.1412 27.4048L43.0995 26.5541C42.8715 26.3679 42.7423 26.0954 42.7423 25.8006C42.7423 25.5059 42.8715 25.2334 43.0995 25.0472L44.1412 24.1965C44.455 23.9406 44.6869 23.5988 44.8085 23.213C44.9302 22.8273 44.9362 22.4144 44.8258 22.0253C44.1907 19.7915 43.0086 17.7937 41.4408 16.1787C41.1587 15.8881 40.7975 15.6862 40.4019 15.5979C40.0062 15.5096 39.5933 15.5388 39.214 15.6818L37.9585 16.1571C37.6866 16.2598 37.3798 16.2362 37.1251 16.0896C36.8728 15.9442 36.7 15.6938 36.6516 15.4036V15.4009L36.4325 14.0669C36.3667 13.6682 36.1857 13.2974 35.9117 12.9999C35.6377 12.7025 35.2827 12.4914 34.8902 12.3925C33.8089 12.1211 32.674 11.974 31.5079 11.974ZM31.5079 16.122C31.8939 16.122 32.2519 16.2156 32.6254 16.2597C32.9197 17.6898 33.7775 18.9487 35.0498 19.6813C36.2663 20.3817 37.7082 20.4813 39.0489 20.089C39.5278 20.7194 39.9229 21.3978 40.2368 22.1333C39.224 23.0962 38.5862 24.3961 38.5862 25.8006C38.5862 27.2039 39.223 28.5025 40.2341 29.4653C39.9208 30.2021 39.5295 30.8823 39.0516 31.5123C37.7096 31.1182 36.2651 31.2187 35.0471 31.92C33.7789 32.6525 32.9239 33.9096 32.6281 35.3362C32.255 35.3827 31.8877 35.4793 31.5079 35.4793C31.1282 35.4793 30.7609 35.3827 30.3878 35.3362C30.0922 33.9086 29.2393 32.6516 27.9688 31.92C26.7508 31.2187 25.3063 31.1182 23.9642 31.5123C23.4868 30.8832 23.0923 30.205 22.7791 29.468C23.7919 28.5051 24.4296 27.2052 24.4296 25.8006C24.4296 24.3974 23.7929 23.0987 22.7818 22.136C23.0951 21.3992 23.4864 20.719 23.9642 20.089C25.3063 20.4831 26.7508 20.3826 27.9688 19.6813C29.237 18.9488 30.092 17.6917 30.3878 16.2651C30.7609 16.2185 31.1282 16.122 31.5079 16.122ZM8.61979 20.27C8.07903 20.2779 7.56265 20.4958 7.18032 20.8776L1.63889 26.4083C1.43945 26.5994 1.28023 26.8283 1.17055 27.0816C1.06086 27.3349 1.00292 27.6075 1.00011 27.8834C0.997297 28.1593 1.04968 28.433 1.15418 28.6885C1.25868 28.944 1.41321 29.176 1.6087 29.3712C1.8042 29.5663 2.03674 29.7205 2.2927 29.8248C2.54867 29.9291 2.82291 29.9814 3.09937 29.9786C3.37583 29.9758 3.64895 29.9179 3.90274 29.8085C4.15653 29.699 4.38588 29.5401 4.57736 29.341L6.64728 27.2751C7.41843 40.3092 18.2588 50.6887 31.5079 50.6887C39.9171 50.6887 47.3657 46.5086 51.877 40.1323C52.0345 39.9098 52.1465 39.6585 52.2066 39.3928C52.2667 39.127 52.2738 38.8521 52.2275 38.5836C52.1811 38.3151 52.0823 38.0584 51.9365 37.8281C51.7907 37.5978 51.6009 37.3983 51.3779 37.2412C51.155 37.0841 50.9032 36.9724 50.6369 36.9124C50.3706 36.8524 50.0952 36.8454 49.8262 36.8916C49.5572 36.9379 49.3 37.0366 49.0692 37.1821C48.8384 37.3277 48.6387 37.5171 48.4813 37.7397C44.7165 43.0608 38.54 46.5407 31.5079 46.5407C20.5588 46.5407 11.6447 38.1439 10.8115 27.4345L12.7407 29.3599C12.9322 29.559 13.1615 29.7179 13.4153 29.8274C13.6691 29.9368 13.9422 29.9947 14.2187 29.9975C14.4951 30.0003 14.7694 29.948 15.0253 29.8437C15.2813 29.7394 15.5138 29.5852 15.7093 29.3901C15.9048 29.1949 16.0594 28.9629 16.1639 28.7074C16.2684 28.4519 16.3207 28.1782 16.3179 27.9023C16.3151 27.6264 16.2572 27.3538 16.1475 27.1005C16.0378 26.8472 15.8786 26.6183 15.6792 26.4272L10.1188 20.8776C9.92232 20.6814 9.68844 20.5266 9.43096 20.4222C9.17349 20.3178 8.89766 20.2661 8.61979 20.27ZM31.5079 23.0353C30.7731 23.0353 30.0684 23.3267 29.5488 23.8453C29.0291 24.3639 28.7372 25.0672 28.7372 25.8006C28.7372 26.5341 29.0291 27.2374 29.5488 27.756C30.0684 28.2746 30.7731 28.566 31.5079 28.566C32.2428 28.566 32.9475 28.2746 33.4671 27.756C33.9867 27.2374 34.2787 26.5341 34.2787 25.8006C34.2787 25.0672 33.9867 24.3639 33.4671 23.8453C32.9475 23.3267 32.2428 23.0353 31.5079 23.0353Z" stroke="#2563EB" stroke-width="0.6" mask="url(#path-1-outside-1_7_329)"/>
</svg>
