<svg width="51" height="56" viewBox="0 0 51 56" fill="none" xmlns="http://www.w3.org/2000/svg">
<path d="M22.6907 24.6522L22.6907 24.6523C23.9487 26.7118 27.0529 26.712 28.3094 24.6496L31.0953 20.0872H35.9125C38.4034 20.0872 40.45 17.9785 40.45 15.4419V5.39535C40.45 2.85873 38.4034 0.75 35.9125 0.75H15.0875C12.5966 0.75 10.55 2.85873 10.55 5.39535V15.4419C10.55 17.9785 12.5966 20.0872 15.0875 20.0872H19.9046L22.6907 24.6522ZM29.9358 15.8198H29.9357C29.5806 15.8199 29.2317 15.9126 28.9219 16.0888C28.6121 16.2649 28.3517 16.5185 28.1648 16.8251L25.4999 21.1921L22.8328 16.8251C22.6459 16.5185 22.3855 16.2649 22.0757 16.0888C21.7659 15.9126 21.417 15.8199 21.0619 15.8198H21.0618H15.0875C14.9694 15.8198 14.8826 15.7784 14.8252 15.7195C14.7673 15.66 14.725 15.5679 14.725 15.4419V5.39535C14.725 5.26931 14.7673 5.17716 14.8252 5.11773C14.8826 5.05878 14.9694 5.01744 15.0875 5.01744H35.9125C36.0306 5.01744 36.1174 5.05878 36.1748 5.11773C36.2327 5.17716 36.275 5.26931 36.275 5.39535V15.4419C36.275 15.5679 36.2327 15.66 36.1748 15.7195C36.1174 15.7784 36.0306 15.8198 35.9125 15.8198H29.9358ZM12.025 22.0988C9.65799 22.0988 7.63291 23.0794 6.3284 24.5839C5.02831 26.0833 4.425 28.0005 4.425 29.8837C4.425 31.7669 5.02831 33.6842 6.3284 35.1836C7.63292 36.6881 9.65799 37.6686 12.025 37.6686C14.392 37.6686 16.4171 36.6881 17.7216 35.1836C19.0217 33.6842 19.625 31.7669 19.625 29.8837C19.625 28.0005 19.0217 26.0833 17.7216 24.5839C16.4171 23.0794 14.392 22.0988 12.025 22.0988ZM38.975 22.0988C36.608 22.0988 34.5829 23.0794 33.2784 24.5839C31.9783 26.0833 31.375 28.0005 31.375 29.8837C31.375 31.7669 31.9783 33.6842 33.2784 35.1836C34.5829 36.6881 36.608 37.6686 38.975 37.6686C41.342 37.6686 43.3671 36.6881 44.6716 35.1836C45.9717 33.6842 46.575 31.7669 46.575 29.8837C46.575 28.0005 45.9717 26.0833 44.6716 24.5839C43.3671 23.0794 41.342 22.0988 38.975 22.0988ZM12.025 26.3663C13.3333 26.3663 14.0644 26.7988 14.5972 27.4132C15.1343 28.0327 15.45 28.9408 15.45 29.8837C15.45 30.8266 15.1343 31.7348 14.5972 32.3542C14.0644 32.9687 13.3333 33.4012 12.025 33.4012C10.7167 33.4012 9.98564 32.9687 9.45285 32.3542C8.91574 31.7348 8.6 30.8266 8.6 29.8837C8.6 28.9408 8.91574 28.0327 9.45285 27.4132C9.98564 26.7988 10.7167 26.3663 12.025 26.3663ZM38.975 26.3663C40.2833 26.3663 41.0144 26.7988 41.5471 27.4132C42.0843 28.0327 42.4 28.9408 42.4 29.8837C42.4 30.8266 42.0843 31.7348 41.5471 32.3542C41.0144 32.9687 40.2833 33.4012 38.975 33.4012C37.6667 33.4012 36.9356 32.9687 36.4028 32.3542C35.8657 31.7348 35.55 30.8266 35.55 29.8837C35.55 28.9408 35.8657 28.0327 36.4028 27.4132C36.9356 26.7988 37.6667 26.3663 38.975 26.3663ZM5.2875 39.6802C2.79779 39.6802 0.75 41.7886 0.75 44.3256V47.4651C0.75 49.9916 2.39365 52.0232 4.4531 53.29C6.51479 54.5581 9.15156 55.25 12.025 55.25C14.8984 55.25 17.5352 54.5581 19.5969 53.29C21.6563 52.0232 23.3 49.9916 23.3 47.4651V44.3256C23.3 41.7886 21.2522 39.6802 18.7625 39.6802H5.2875ZM32.2375 39.6802C29.7478 39.6802 27.7 41.7886 27.7 44.3256V47.4651C27.7 49.9916 29.3437 52.0232 31.4031 53.29C33.4648 54.5581 36.1016 55.25 38.975 55.25C41.8484 55.25 44.4852 54.5581 46.5469 53.29C48.6063 52.0232 50.25 49.9916 50.25 47.4651V44.3256C50.25 41.7886 48.2022 39.6802 45.7125 39.6802H32.2375ZM5.2875 43.9477H18.7625C18.8819 43.9477 18.9685 43.989 19.0253 44.0472C19.0826 44.106 19.125 44.1978 19.125 44.3256V47.4651C19.125 48.054 18.7171 48.8512 17.4448 49.6338C16.1811 50.4111 14.2253 50.9826 12.025 50.9826C9.82468 50.9826 7.86891 50.4111 6.6052 49.6338C5.33295 48.8512 4.925 48.054 4.925 47.4651V44.3256C4.925 44.1978 4.96738 44.106 5.02467 44.0472C5.08151 43.989 5.16812 43.9477 5.2875 43.9477ZM45.7125 43.9477C45.8319 43.9477 45.9185 43.989 45.9753 44.0472C46.0326 44.106 46.075 44.1978 46.075 44.3256V47.4651C46.075 48.054 45.667 48.8512 44.3948 49.6338C43.1311 50.4111 41.1753 50.9826 38.975 50.9826C36.7747 50.9826 34.8189 50.4111 33.5552 49.6338C32.283 48.8512 31.875 48.054 31.875 47.4651V44.3256C31.875 44.1978 31.9174 44.106 31.9747 44.0472C32.0315 43.989 32.1181 43.9477 32.2375 43.9477H45.7125Z" fill="#2563EB" stroke="#2563EB" stroke-width="0.5"/>
</svg>
