<svg width="145" height="38" viewBox="0 0 145 38" fill="none" xmlns="http://www.w3.org/2000/svg">
<g id="logo-dark (1) 1" clip-path="url(#clip0_7_346)">
<path id="Vector" d="M27.5733 10.4759H9.922L18.7477 1.53247H36.5391L27.5733 10.4759Z" fill="#00D273"/>
<path id="Vector_2" d="M18.7478 37.0267H0.95636L9.92211 28.0833H27.5735L18.7478 37.0267Z" fill="#FF6429"/>
<path id="Vector_3" d="M0.95636 10.4759V37.0267L9.92211 28.0833V1.53247L0.95636 10.4759Z" fill="#14B4EF"/>
<path id="Vector_4" d="M27.5735 10.4759V37.0267L36.5392 28.0833V1.53247L27.5735 10.4759Z" fill="#B066FF"/>
<path id="Vector_5" d="M45.3652 6.00439H49.2877V28.7822H62.3161V32.695H45.3652V6.00439Z" fill="black"/>
<path id="Vector_6" d="M73.5235 32.9744C72.1226 32.9744 70.7217 32.6949 69.4609 32.136C68.2001 31.577 67.0794 30.8783 66.2388 29.9001C65.2582 28.9219 64.5578 27.9437 63.9974 26.6861C63.437 25.4284 63.1569 24.1707 63.1569 22.6336C63.1569 21.2362 63.437 19.8387 63.9974 18.5811C64.5578 17.3234 65.2582 16.2055 66.2388 15.367C67.2195 14.3888 68.2001 13.6901 69.4609 13.1312C70.7217 12.5722 71.9825 12.2927 73.5235 12.2927C74.9244 12.2927 76.3253 12.5722 77.5861 13.1312C78.8469 13.6901 79.9677 14.3888 80.8082 15.367C81.7888 16.3452 82.4893 17.3234 83.0496 18.5811C83.61 19.8387 83.8902 21.0964 83.8902 22.6336C83.8902 24.031 83.61 25.4284 83.0496 26.6861C82.4893 27.9437 81.7888 29.0617 80.8082 29.9001C79.8276 30.8783 78.8469 31.577 77.5861 32.136C76.1852 32.6949 74.9244 32.9744 73.5235 32.9744ZM73.5235 29.3411C74.3641 29.3411 75.2046 29.2014 76.0451 28.7822C76.7456 28.5027 77.446 27.9437 78.0064 27.3848C78.5668 26.8258 78.987 26.1271 79.4073 25.2887C79.8276 24.4502 79.9677 23.6118 79.9677 22.7733C79.9677 21.9349 79.8276 20.9567 79.4073 20.258C79.1271 19.4195 78.5668 18.7208 78.0064 18.1619C77.446 17.6029 76.7456 17.0439 76.0451 16.7644C75.2046 16.485 74.5042 16.2055 73.5235 16.2055C72.683 16.2055 71.8424 16.3452 71.0019 16.7644C70.3015 17.0439 69.601 17.6029 69.0406 18.1619C68.4803 18.7208 68.06 19.4195 67.6397 20.258C67.3596 21.0964 67.2195 21.9349 67.2195 22.7733C67.2195 23.7515 67.3596 24.5899 67.6397 25.2887C67.9199 26.1271 68.3402 26.8258 69.0406 27.3848C69.601 27.9437 70.3015 28.5027 71.0019 28.7822C71.7024 29.0617 72.5429 29.3411 73.5235 29.3411Z" fill="black"/>
<path id="Vector_7" d="M96.0775 32.9744C94.6766 32.9744 93.2757 32.6949 92.0149 32.136C90.7541 31.577 89.6333 30.8783 88.7928 29.9001C87.8122 28.9219 87.1117 27.9437 86.5514 26.6861C85.991 25.4284 85.7108 24.1707 85.7108 22.6336C85.7108 21.2362 85.991 19.8387 86.5514 18.5811C87.1117 17.3234 87.8122 16.2055 88.7928 15.367C89.7734 14.3888 90.7541 13.6901 92.0149 13.1312C93.2757 12.5722 94.6766 12.2927 96.0775 12.2927C97.1982 12.2927 98.1788 12.4325 99.1595 12.7119C100.14 12.9914 100.981 13.4106 101.821 13.9696C102.662 14.5286 103.362 15.0875 103.923 15.926C104.483 16.6247 105.043 17.4631 105.464 18.3016L101.961 19.8387C101.401 18.5811 100.7 17.7426 99.7198 17.0439C98.7392 16.3452 97.4784 16.0657 96.2176 16.0657C95.2369 16.0657 94.3964 16.2055 93.6959 16.6247C92.8554 16.9042 92.2951 17.4631 91.7347 18.0221C91.1743 18.5811 90.7541 19.2798 90.3338 20.1182C90.0536 20.9567 89.7734 21.7951 89.7734 22.6336C89.7734 23.472 89.9135 24.4502 90.3338 25.1489C90.614 25.9874 91.1743 26.6861 91.7347 27.245C92.2951 27.804 92.9955 28.363 93.836 28.6424C94.6766 28.9219 95.5171 29.2014 96.3577 29.2014C97.7586 29.2014 99.0194 28.7822 100 28.0835C100.981 27.3848 101.681 26.4066 102.241 25.2887L105.884 26.8258C105.043 28.6424 103.923 30.1796 102.241 31.2975C100.28 32.4154 98.3189 32.9744 96.0775 32.9744Z" fill="black"/>
<path id="Vector_8" d="M115.971 32.975C113.309 32.975 111.348 32.1366 109.947 30.5994C108.546 29.0623 107.845 26.9662 107.845 24.1713V12.8523H111.908V24.0316C111.908 25.7085 112.328 27.1059 113.169 28.0841C114.009 29.0623 115.27 29.6212 116.951 29.6212C117.652 29.6212 118.352 29.4815 119.053 29.202C119.753 28.9225 120.313 28.5033 120.734 28.0841C121.154 27.6649 121.574 26.9662 121.854 26.2675C122.135 25.5688 122.275 24.7303 122.275 23.8919V12.992H126.197V32.6956H122.135V30.0405C121.434 31.0187 120.594 31.7174 119.473 32.2763C118.492 32.6956 117.231 32.975 115.971 32.975Z" fill="black"/>
<path id="Vector_9" d="M143.988 24.1713C143.568 23.4726 143.008 22.9136 142.307 22.4944C141.607 22.0752 140.906 21.656 140.066 21.5162C139.226 21.2368 138.385 21.097 137.545 20.8175C136.004 20.538 134.883 20.1188 134.042 19.8393C133.202 19.5599 132.781 19.0009 132.781 18.1624C132.781 17.4637 133.062 16.9048 133.622 16.3458C134.182 15.9266 135.163 15.6471 136.284 15.6471C137.404 15.6471 138.245 15.7868 138.945 16.2061C139.646 16.6253 140.346 17.1843 140.766 17.883L143.568 15.0881C142.868 14.2497 142.027 13.6907 141.046 13.1317C139.786 12.433 138.245 12.1536 136.284 12.1536C135.163 12.1536 134.042 12.2933 133.062 12.5728C132.081 12.8523 131.381 13.2715 130.68 13.8304C129.98 14.3894 129.559 14.9484 129.139 15.7868C128.719 16.4856 128.579 17.1843 128.579 18.0227C128.579 19.0009 128.719 19.8393 129.139 20.538C129.559 21.2368 130.12 21.7957 130.68 22.2149C131.381 22.6342 132.081 22.9136 132.922 23.1931C133.762 23.4726 134.603 23.6124 135.443 23.8918C136.144 24.0316 136.704 24.1713 137.264 24.3111C137.825 24.4508 138.385 24.5905 138.805 24.7303C139.226 24.87 139.646 25.1495 139.926 25.429C140.206 25.7085 140.346 26.1277 140.346 26.5469C140.346 27.2456 140.066 27.9443 139.366 28.5033C138.665 29.0623 137.685 29.3417 136.424 29.3417C135.163 29.3417 134.182 29.0623 133.342 28.643C132.501 28.0841 131.801 27.3854 131.1 26.5469L128.159 29.4815C128.859 30.4597 129.84 31.2981 130.96 31.8571C132.361 32.5558 134.182 32.975 136.284 32.975C137.685 32.975 138.805 32.8353 139.786 32.416C140.766 31.9968 141.607 31.5776 142.307 31.0186C143.008 30.4597 143.428 29.761 143.848 29.0623C144.128 28.3635 144.409 27.5251 144.409 26.8264C144.549 25.7085 144.409 24.87 143.988 24.1713Z" fill="black"/>
</g>
<defs>
<clipPath id="clip0_7_346">
<rect width="144.293" height="36.3327" fill="white" transform="translate(0.25592 0.83374)"/>
</clipPath>
</defs>
</svg>
